<svg width="257" height="256" viewBox="0 0 257 256" fill="none" xmlns="http://www.w3.org/2000/svg">
<path d="M224.497 42.6698H192.497V32.0031C192.497 26.1044 187.729 21.3364 181.83 21.3364H75.1634C69.2647 21.3364 64.4967 26.1044 64.4967 32.0031V42.6698H32.4967C26.5981 42.6698 21.8301 47.4378 21.8301 53.3364V85.3364C21.8301 131.31 41.0194 159.043 73.2327 160.131C82.6194 176.227 98.7901 187.832 117.83 191.043V213.336H96.4967V234.67H160.497V213.336H139.163V191.043C158.193 187.822 174.374 176.216 183.761 160.131C215.974 159.043 235.163 131.31 235.163 85.3364V53.3364C235.163 47.4378 230.395 42.6698 224.497 42.6698ZM43.1634 85.3364V64.0031H64.4967V128.227V136.856C45.4674 128.835 43.1634 99.1924 43.1634 85.3364ZM128.497 170.67C104.966 170.67 85.8301 151.534 85.8301 128.003V42.6698H171.163V128.003C171.163 151.534 152.027 170.67 128.497 170.67ZM192.497 136.856V128.227V64.0031H213.83V85.3364C213.83 99.1924 211.526 128.835 192.497 136.856Z" fill="#F8C800"/>
<path d="M128.094 126H137.438V80.9062H128.062L116.406 89V97.5L127.906 89.5625H128.094V126Z" fill="#F8C800"/>
</svg>
