<svg width="56" height="56" viewBox="0 0 56 56" fill="none" xmlns="http://www.w3.org/2000/svg">
<path d="M27.9977 17.2129C22.0383 17.2129 17.2107 22.0429 17.2107 27.9999C17.2107 33.9592 22.0383 38.7892 27.9977 38.7892C33.9523 38.7892 38.7847 33.9592 38.7847 27.9999C38.7847 22.0429 33.9523 17.2129 27.9977 17.2129ZM27.9977 35.0092C24.1267 35.0092 20.9883 31.8709 20.9883 28.0022C20.9883 24.1312 24.1267 20.9952 27.9977 20.9952C31.8687 20.9952 35.0023 24.1312 35.0023 28.0022C35.0023 31.8709 31.8687 35.0092 27.9977 35.0092Z" fill="#484848"/>
<path d="M39.214 19.3317C40.6032 19.3317 41.7293 18.2055 41.7293 16.8164C41.7293 15.4272 40.6032 14.301 39.214 14.301C37.8248 14.301 36.6987 15.4272 36.6987 16.8164C36.6987 18.2055 37.8248 19.3317 39.214 19.3317Z" fill="#484848"/>
<path d="M47.9103 14.2591C46.816 11.4381 44.5877 9.20739 41.7667 8.11772C40.1357 7.50405 38.4113 7.17505 36.666 7.13772C34.419 7.03972 33.7073 7.01172 28.0093 7.01172C22.3113 7.01172 21.581 7.01172 19.3527 7.13772C17.612 7.17272 15.8877 7.50172 14.2567 8.11772C11.4333 9.20739 9.205 11.4381 8.113 14.2591C7.49934 15.8924 7.17034 17.6144 7.13534 19.3597C7.035 21.6044 7.00467 22.3161 7.00467 28.0164C7.00467 33.7144 7.00467 34.4401 7.13534 36.6731C7.17034 38.4184 7.49934 40.1404 8.113 41.7761C9.20734 44.5947 11.4357 46.8254 14.259 47.9174C15.883 48.5521 17.6073 48.9114 19.3573 48.9674C21.6043 49.0654 22.316 49.0957 28.014 49.0957C33.712 49.0957 34.4423 49.0957 36.6707 48.9674C38.4137 48.9324 40.138 48.6011 41.7713 47.9897C44.5923 46.8954 46.8207 44.6671 47.915 41.8461C48.5287 40.2127 48.8577 38.4907 48.8927 36.7454C48.993 34.5007 49.0233 33.7891 49.0233 28.0887C49.0233 22.3884 49.0233 21.6651 48.8927 19.4321C48.8623 17.6634 48.5357 15.9111 47.9103 14.2591ZM45.0683 36.5004C45.052 37.8444 44.8093 39.1767 44.3427 40.4391C43.631 42.2754 42.182 43.7267 40.348 44.4314C39.0997 44.8957 37.7837 45.1384 36.4513 45.1571C34.2347 45.2597 33.6093 45.2854 27.9253 45.2854C22.2367 45.2854 21.6557 45.2854 19.397 45.1571C18.0693 45.1407 16.7487 44.8957 15.5027 44.4314C13.6617 43.7291 12.2033 42.2777 11.4917 40.4391C11.0343 39.1931 10.787 37.8747 10.766 36.5447C10.6657 34.3281 10.6423 33.7027 10.6423 28.0187C10.6423 22.3324 10.6423 21.7514 10.766 19.4904C10.7823 18.1464 11.025 16.8164 11.4917 15.5541C12.2033 13.7131 13.6617 12.2641 15.5027 11.5594C16.7487 11.0974 18.0693 10.8524 19.397 10.8337C21.616 10.7334 22.239 10.7054 27.9253 10.7054C33.6117 10.7054 34.195 10.7054 36.4513 10.8337C37.7837 10.8501 39.0997 11.0951 40.348 11.5594C42.182 12.2664 43.631 13.7177 44.3427 15.5541C44.8 16.8001 45.0473 18.1184 45.0683 19.4484C45.1687 21.6674 45.1943 22.2904 45.1943 27.9767C45.1943 33.6607 45.1943 34.2721 45.094 36.5027H45.0683V36.5004Z" fill="#484848"/>
</svg>
