<svg width="42" height="42" viewBox="0 0 42 42" fill="none" xmlns="http://www.w3.org/2000/svg">
<path d="M39.6667 0H2.33333C1.043 0 0 1.04533 0 2.33333V39.6667C0 40.9547 1.043 42 2.33333 42H39.6667C40.957 42 42 40.9547 42 39.6667V2.33333C42 1.04533 40.957 0 39.6667 0ZM12.4577 35.7863H6.223V15.743H12.4577V35.7863ZM9.34033 13.006C7.343 13.006 5.72833 11.3867 5.72833 9.394C5.72833 7.40133 7.34067 5.782 9.34033 5.782C11.333 5.782 12.9523 7.399 12.9523 9.394C12.9523 11.389 11.333 13.006 9.34033 13.006ZM35.7887 35.7863H29.561V26.04C29.561 23.716 29.519 20.727 26.3223 20.727C23.079 20.727 22.5867 23.261 22.5867 25.8767V35.7887H16.3637V15.7453H22.337V18.4847H22.4233C23.2517 16.9097 25.2863 15.2483 28.3127 15.2483C34.622 15.2483 35.7863 19.397 35.7863 24.7963V35.7863H35.7887Z" fill="#484848"/>
</svg>
