<svg width="45" height="45" viewBox="0 0 45 45" fill="none" xmlns="http://www.w3.org/2000/svg">
<rect width="43.9924" height="43.9924" transform="translate(0.30249 0.537933)" fill="#F8C800"/>
<path fill-rule="evenodd" clip-rule="evenodd" d="M7.63454 4.20398H36.9628C38.9791 4.20398 40.6288 5.85369 40.6288 7.87001V29.8662C40.6288 31.8825 38.9791 33.5322 36.9628 33.5322H11.3006L3.96851 40.8643L3.98684 7.87001C3.98684 5.85369 5.61822 4.20398 7.63454 4.20398ZM13.1336 26.2002H31.4637C32.4719 26.2002 33.2968 25.3753 33.2968 24.3672C33.2968 23.359 32.4719 22.5341 31.4637 22.5341H13.1336C12.1254 22.5341 11.3006 23.359 11.3006 24.3672C11.3006 25.3753 12.1254 26.2002 13.1336 26.2002ZM31.4637 20.7011H13.1336C12.1254 20.7011 11.3006 19.8763 11.3006 18.8681C11.3006 17.8599 12.1254 17.0351 13.1336 17.0351H31.4637C32.4719 17.0351 33.2968 17.8599 33.2968 18.8681C33.2968 19.8763 32.4719 20.7011 31.4637 20.7011ZM13.1336 15.2021H31.4637C32.4719 15.2021 33.2968 14.3772 33.2968 13.3691C33.2968 12.3609 32.4719 11.536 31.4637 11.536H13.1336C12.1254 11.536 11.3006 12.3609 11.3006 13.3691C11.3006 14.3772 12.1254 15.2021 13.1336 15.2021Z" fill="white"/>
</svg>
