<svg width="45" height="45" viewBox="0 0 45 45" fill="none" xmlns="http://www.w3.org/2000/svg">
<path d="M40.1166 21.0285C39.6711 20.6913 39.0937 20.5758 38.5512 20.7133C38.0269 20.8489 37.5943 20.9112 37.1874 20.9112C34.1556 20.9112 31.6884 18.444 31.6829 15.5258C31.692 15.4635 31.7122 15.2802 31.714 15.2179C31.7378 14.6368 31.4831 14.0796 31.0303 13.7166C30.5775 13.3537 29.9782 13.2217 29.4154 13.3739C28.8783 13.5132 28.4366 13.5792 28.0223 13.5792C24.9905 13.5792 22.5233 11.1119 22.5233 8.08012C22.5233 7.68235 22.5801 7.26626 22.7047 6.76768C22.8477 6.19028 22.7011 5.57988 22.3125 5.12896C21.9257 4.67987 21.3575 4.45258 20.7489 4.50207C11.3107 5.41124 4.19312 13.2529 4.19312 22.7442C4.19312 32.8515 12.416 41.0744 22.5233 41.0744C32.6305 41.0744 40.8534 32.8515 40.8534 22.7442C40.8534 22.6544 40.8479 22.5664 40.8406 22.451C40.8278 21.8919 40.562 21.3676 40.1166 21.0285ZM16.1077 11.7461C17.6255 11.7461 18.8572 12.9761 18.8572 14.4957C18.8572 16.0152 17.6255 17.2452 16.1077 17.2452C14.59 17.2452 13.3582 16.0152 13.3582 14.4957C13.3582 12.9761 14.59 11.7461 16.1077 11.7461ZM12.4417 26.4103C10.924 26.4103 9.69216 25.1803 9.69216 23.6608C9.69216 22.1412 10.924 20.9112 12.4417 20.9112C13.9594 20.9112 15.1912 22.1412 15.1912 23.6608C15.1912 25.1803 13.9594 26.4103 12.4417 26.4103ZM17.9407 33.7423C16.423 33.7423 15.1912 32.5124 15.1912 30.9928C15.1912 29.4732 16.423 28.2433 17.9407 28.2433C19.4585 28.2433 20.6903 29.4732 20.6903 30.9928C20.6903 32.5124 19.4585 33.7423 17.9407 33.7423ZM22.5233 21.8277C22.5233 20.3082 23.7551 19.0782 25.2728 19.0782C26.7905 19.0782 28.0223 20.3082 28.0223 21.8277C28.0223 23.3473 26.7905 24.5773 25.2728 24.5773C23.7551 24.5773 22.5233 23.3473 22.5233 21.8277ZM28.9388 33.7423C27.4211 33.7423 26.1893 32.5124 26.1893 30.9928C26.1893 29.4732 27.4211 28.2433 28.9388 28.2433C30.4566 28.2433 31.6884 29.4732 31.6884 30.9928C31.6884 32.5124 30.4566 33.7423 28.9388 33.7423Z" fill="white"/>
</svg>
