<svg width="180" height="180" viewBox="0 0 180 180" fill="none" xmlns="http://www.w3.org/2000/svg">
<path d="M37.5 67.4925C37.5 81.7575 43.2375 94.695 52.5 104.168V157.5C52.5 160.103 53.85 162.51 56.055 163.883C58.2675 165.263 61.035 165.368 63.3525 164.213L90 150.885L116.648 164.205C117.705 164.738 118.853 165 120 165C121.372 165 122.737 164.625 123.937 163.883C126.15 162.51 127.5 160.103 127.5 157.5V104.175C136.763 94.7025 142.5 81.765 142.5 67.4925C142.5 38.55 118.95 15 90 15C61.05 15 37.5 38.55 37.5 67.4925ZM93.3525 135.788C91.245 134.73 88.755 134.73 86.64 135.788L67.5 145.365V114.863C74.3325 118.118 81.945 120 90 120C98.055 120 105.667 118.125 112.5 114.863V145.358L93.3525 135.788ZM90 30C110.67 30 127.5 46.815 127.5 67.4925C127.5 88.1775 110.677 105 90 105C69.3225 105 52.5 88.1775 52.5 67.4925C52.5 46.815 69.3225 30 90 30Z" fill="white"/>
<path d="M79.6309 64.2637V64.3516H84.5527V64.2637C84.5527 61.9258 86.3633 60.2031 88.8242 60.2031C91.1797 60.2031 92.8496 61.7148 92.8496 63.6133C92.8496 65.3711 92.0586 66.6543 89.4922 69.2207L79.9297 78.4316V82H98.3691V77.7812H86.9258V77.6758L93.1133 71.7168C95.9082 68.9395 98.0176 66.5664 98.0176 63.4023C98.0176 59.166 94.3438 56.0723 89 56.0723C83.4629 56.0723 79.6309 59.4648 79.6309 64.2637Z" fill="white"/>
</svg>
