<svg width="132" height="128" viewBox="0 0 132 128" fill="none" xmlns="http://www.w3.org/2000/svg">
<path fill-rule="evenodd" clip-rule="evenodd" d="M66.9673 0.142449C64.3035 0.589072 59.123 2.92088 56.2894 4.94864C53.4151 7.00546 53.0235 7.45318 53.0235 8.68311C53.0235 10.3484 53.7535 11.0615 55.4336 11.0377C56.1838 11.027 57.0866 10.8326 57.4396 10.6059C58.6005 9.85957 60.6081 9.47052 62.569 9.61117C64.815 9.77238 67.2855 10.8381 69.6598 12.6701C72.9224 15.1875 79.4828 22.7562 80.796 25.5177L81.2701 26.5148L80.4069 27.5005C79.9323 28.0425 79.544 28.6728 79.544 28.9012C79.544 29.73 80.4444 31.0208 83.0281 33.8968C84.4769 35.5095 85.7928 36.9755 85.9524 37.1545C86.1118 37.3336 88.9492 40.3132 92.2575 43.776C98.1037 49.8952 98.3031 50.0723 99.3661 50.0893C99.9676 50.0989 100.767 49.9306 101.143 49.7151C102.396 48.997 103.682 49.195 104.792 50.2766C105.969 51.4223 106.089 52.4403 105.244 54.1018C104.227 56.1027 104.444 56.8983 106.722 59.5106C111.388 64.8627 112.997 66.2974 114.336 66.3004C115.074 66.3023 116.926 64.8624 120.692 61.3571C121.444 60.6572 122.982 59.2397 124.109 58.2069C128.337 54.3348 131.518 51.0741 131.674 50.4526C131.89 49.5903 130.78 48.0297 126.884 43.716C123.184 39.6193 122.783 39.4098 120.299 40.2718C118.309 40.9625 117.506 40.8366 116.412 39.6632C115.45 38.6304 115.395 37.4185 116.218 35.4262C116.572 34.5705 116.735 33.7567 116.631 33.3647C116.538 33.0083 115.518 31.6678 114.365 30.3861C113.212 29.1044 111.396 27.0695 110.329 25.8642C107.445 22.6071 104.421 19.3818 100.988 15.9001L97.923 12.7921L96.3862 12.9848L94.8494 13.1773L92.4598 10.8669C85.4469 4.08693 80.3987 1.05872 74.7403 0.238683C72.8896 -0.0294551 68.33 -0.085934 66.9673 0.142449ZM23.0915 0.844323C22.6792 1.20349 22.3185 1.87027 22.228 2.44026C22.0435 3.60466 22.3954 4.05677 28.0188 9.87712C31.5417 13.5233 31.6406 13.6585 31.438 14.538C31.3235 15.0362 30.521 18.0487 29.6551 21.2327L28.0809 27.0215L26.2665 27.4739C25.2689 27.7225 22.8531 28.3583 20.8982 28.8864C18.9433 29.4147 16.7618 29.9888 16.0507 30.1624L14.7572 30.4777L9.98733 25.7814C7.31587 23.151 4.91016 21.0076 4.51919 20.9092C3.66151 20.6934 2.1873 21.4926 1.67712 22.4503C1.41957 22.9336 1.36598 23.8082 1.48491 25.5881C1.96584 32.7865 5.11986 38.7425 10.8833 43.3351C13.2037 45.1841 14.4646 45.8685 17.8907 47.1368L20.3514 48.0481L25.5461 48.0396C29.7383 48.033 30.9719 47.9426 31.9373 47.5708C32.5951 47.3177 33.2718 47.1104 33.441 47.1107C33.61 47.1107 36.3145 49.6298 39.4508 52.7087C42.6822 55.8809 45.4551 58.3827 45.8496 58.4819C46.2326 58.5784 46.8743 58.5208 47.2757 58.3541C48.3726 57.8985 59.5107 46.5448 59.7332 45.6554C59.982 44.661 59.6471 44.247 53.3678 37.7944L48.1706 32.4539L48.5375 31.4112C49.6587 28.2243 49.7098 21.1573 48.6367 17.6372C46.4965 10.6146 41.1563 4.66268 34.6574 2.05533C32.1311 1.04173 28.2017 0.227442 25.8376 0.227442C24.1159 0.227442 23.6894 0.323127 23.0915 0.844323ZM79.8664 38.7483C78.9179 39.5776 78.0411 40.2562 77.9175 40.2562C77.7937 40.2562 77.3404 40.0728 76.9095 39.8485C76.4789 39.6242 75.8804 39.5179 75.5796 39.6119C74.3206 40.0059 70.1161 43.2872 63.6864 48.8936C61.6564 50.6637 59.6878 52.3761 59.3119 52.6991C54.9702 56.4286 48.4732 62.0563 47.282 63.1192C45.7033 64.5279 45.3022 64.8775 42.2171 67.5322C41.1683 68.4348 40.2486 69.2384 40.1734 69.3179C40.0982 69.3974 38.6224 70.6948 36.8939 72.2005C35.1654 73.7065 33.3814 75.2638 32.9295 75.6614C32.4775 76.0589 29.9548 78.2649 27.3233 80.5638C24.6917 82.8627 22.108 85.1301 21.5817 85.6025C21.0554 86.0749 19.1484 87.7539 17.3439 89.3337C3.52535 101.43 0.695861 104.136 0.284383 105.646C-0.375895 108.069 0.139204 111.475 1.56366 114.105C2.51128 115.855 5.85861 119.179 7.66638 120.166C10.2397 121.57 13.096 122.019 15.43 121.384C16.2875 121.152 19.1484 119.262 19.9413 118.405C20.0165 118.324 20.7547 117.65 21.5817 116.909C22.4088 116.167 23.9491 114.748 25.005 113.756C26.0609 112.763 28.3947 110.594 30.1916 108.936C35.6231 103.922 37.4883 102.186 39.462 100.31C42.1337 97.7701 42.4626 97.4636 45.7974 94.4088C48.8888 91.5769 50.8748 89.723 54.3906 86.3869C55.5184 85.3168 56.8102 84.1083 57.2613 83.7014C57.7125 83.2948 59.3595 81.7734 60.9214 80.3212C62.4834 78.8686 64.0829 77.3876 64.4757 77.0298C64.8686 76.672 66.1137 75.4999 67.2423 74.4251C68.371 73.3504 70.0349 71.7926 70.9399 70.9632C74.013 68.1469 82.0944 60.5788 86.4785 56.4114C88.2573 54.7206 88.3767 54.5319 88.4024 53.376C88.421 52.5431 88.2758 51.9893 87.9551 51.6677C87.521 51.232 87.5169 51.1361 87.9073 50.5389C88.1419 50.18 89.0138 49.2769 89.8452 48.5323L91.3566 47.1784L89.9198 45.568C87.6448 43.0179 82.0017 37.2403 81.7862 37.2403C81.6785 37.2403 80.8146 37.9189 79.8664 38.7483ZM79.9541 67.3688C79.1509 67.8741 72.3359 74.5466 69.4963 77.608C67.9199 79.3076 67.706 80.1586 68.5413 81.4113C68.8032 81.8047 71.9838 85.1803 75.6089 88.9128L82.1996 95.6993L81.6922 97.638C81.2966 99.1484 81.1845 100.572 81.1845 104.079C81.1845 108.351 81.2263 108.706 82.0033 111.032C82.4536 112.38 83.2553 114.321 83.7843 115.347C86.1958 120.02 91.8304 124.859 96.9221 126.63C100.547 127.891 106.153 128.426 107.221 127.613C108.082 126.957 108.504 125.819 108.206 124.96C107.908 124.103 105.143 120.961 101.382 117.205C100.048 115.872 98.9559 114.561 98.9559 114.29C98.9559 113.399 102.232 101.831 102.58 101.494C102.767 101.312 103.597 100.977 104.424 100.748C105.251 100.52 107.035 100.021 108.388 99.6381C109.742 99.2553 111.924 98.6732 113.238 98.3445L115.627 97.7468L120.075 102.107C122.521 104.506 124.983 106.712 125.546 107.01C126.543 107.538 126.594 107.539 127.495 107.053C128.689 106.408 129.031 105.61 129.031 103.464C129.031 97.7098 126.177 91.1629 121.758 86.7746C118.522 83.5619 114.811 81.513 110.237 80.4138C107.697 79.8033 100.485 79.9773 98.1735 80.7053L96.7075 81.1667L90.7915 75.2879C81.5391 66.0937 81.7436 66.2428 79.9541 67.3688Z" fill="url(#paint0_linear)"/>
<defs>
<linearGradient id="paint0_linear" x1="0" y1="0" x2="124.865" y2="128.474" gradientUnits="userSpaceOnUse">
<stop stop-color="#0FA1DB"/>
<stop offset="0.515625" stop-color="#9AE95A"/>
<stop offset="1" stop-color="#F8C800"/>
</linearGradient>
</defs>
</svg>
