<svg width="180" height="180" viewBox="0 0 180 180" fill="none" xmlns="http://www.w3.org/2000/svg">
<path d="M37.5 67.4925C37.5 81.7575 43.2375 94.695 52.5 104.168V157.5C52.5 160.103 53.85 162.51 56.055 163.883C58.2675 165.263 61.035 165.368 63.3525 164.213L90 150.885L116.648 164.205C117.705 164.738 118.853 165 120 165C121.372 165 122.737 164.625 123.938 163.883C126.15 162.51 127.5 160.103 127.5 157.5V104.175C136.762 94.7025 142.5 81.765 142.5 67.4925C142.5 38.55 118.95 15 90 15C61.05 15 37.5 38.55 37.5 67.4925ZM93.3525 135.788C91.245 134.73 88.755 134.73 86.64 135.788L67.5 145.365V114.863C74.3325 118.118 81.945 120 90 120C98.055 120 105.668 118.125 112.5 114.863V145.358L93.3525 135.788ZM90 30C110.67 30 127.5 46.815 127.5 67.4925C127.5 88.1775 110.677 105 90 105C69.3225 105 52.5 88.1775 52.5 67.4925C52.5 46.815 69.3225 30 90 30Z" fill="white"/>
<path d="M86.125 70.9258H89.2539C92.1191 70.9258 93.8594 72.332 93.8594 74.6523C93.8594 76.7969 91.9961 78.291 89.3418 78.291C86.5469 78.291 84.7891 76.8848 84.6309 74.7402H79.5508C79.7969 79.416 83.541 82.5625 89.2715 82.5625C95.125 82.5625 99.2559 79.5391 99.2559 74.9863C99.2559 71.4707 96.8125 69.1855 93.0332 68.8691V68.7637C96.1445 68.2012 98.2715 65.9512 98.2715 62.8398C98.2715 58.7793 94.668 56.0723 89.3945 56.0723C83.8926 56.0723 80.2363 59.1309 80.043 63.8242H84.9297C85.0703 61.6094 86.7051 60.1504 89.166 60.1504C91.8027 60.1504 93.2617 61.5039 93.2617 63.5605C93.2617 65.6523 91.627 67.0938 89.2012 67.0938H86.125V70.9258Z" fill="white"/>
</svg>
