<svg width="56" height="56" viewBox="0 0 56 56" fill="none" xmlns="http://www.w3.org/2000/svg">
<path fill-rule="evenodd" clip-rule="evenodd" d="M10.1141 5.00379C9.19271 5.0651 8.25641 5.38017 7.48225 5.8894C7.1305 6.12077 6.88629 6.32031 6.58931 6.619C5.67567 7.53791 5.12569 8.72256 5.01623 10.0073C5.00146 10.1807 4.99741 15.1715 5.00151 28.145L5.00718 46.0435L5.04874 46.3012C5.27281 47.6903 5.92667 48.8589 6.96604 49.7279C7.7666 50.3972 8.65976 50.7933 9.74687 50.9609C9.94713 50.9918 10.8536 50.9937 27.8654 50.9991C44.1947 51.0043 45.799 51.0022 46.0676 50.9752C47.9484 50.7866 49.5741 49.6659 50.4302 47.9679C50.7038 47.4253 50.8762 46.8601 50.9667 46.2091C50.9986 45.9797 51 45.2323 51 28.0162C51 10.8903 50.9985 10.0514 50.9672 9.82319C50.8742 9.14529 50.721 8.63361 50.4382 8.05635C49.8997 6.95726 49.0324 6.09287 47.9264 5.55297C47.3688 5.28076 46.9528 5.1527 46.2422 5.0346C46.0596 5.00425 45.0777 5.00239 28.123 5.00039C18.2637 4.99923 10.1597 5.00076 10.1141 5.00379ZM33.6066 12.6897C33.612 12.7226 33.6254 12.8199 33.6364 12.906C33.6473 12.992 33.6807 13.1866 33.7106 13.3385C33.9529 14.568 34.4504 15.6874 35.1993 16.6881C35.7504 17.4245 36.4879 18.1187 37.2517 18.6198C38.3077 19.3127 39.4854 19.7461 40.7302 19.9C40.9023 19.9213 41.07 19.9427 41.1029 19.9476L41.1627 19.9566V22.5122V25.0678L40.9465 25.0832C40.8275 25.0916 40.548 25.0974 40.3252 25.096C39.2137 25.089 38.1938 24.8726 37.1321 24.4185C35.7788 23.8397 34.5121 22.8072 33.6831 21.6072C33.6151 21.5087 33.5517 21.4233 33.5421 21.4174C33.5313 21.4108 33.5247 23.8634 33.5246 27.9461C33.5245 32.1335 33.5178 34.5648 33.5061 34.7062C33.3837 36.1785 32.9776 37.4965 32.2728 38.7092C30.7956 41.2508 28.2446 42.9364 25.3255 43.2999C24.7831 43.3674 24.0384 43.3863 23.5045 43.3461C22.3012 43.2556 21.0803 42.919 20.025 42.3869C18.7593 41.7486 17.7268 40.9097 16.8647 39.8191C15.1194 37.6112 14.4683 34.76 15.0773 31.9916C15.3716 30.6532 16.007 29.3193 16.8656 28.2372C17.4035 27.5594 18.1256 26.8777 18.8287 26.384C20.2707 25.3715 21.9566 24.797 23.7611 24.7033C24.1131 24.685 24.4838 24.6895 24.686 24.7144L24.7642 24.724V27.0234C24.7642 28.2881 24.758 29.3227 24.7504 29.3226C24.7428 29.3224 24.6579 29.3101 24.5617 29.2953C24.2138 29.2417 23.7274 29.2657 23.255 29.36C21.8069 29.6488 20.5854 30.5869 19.9264 31.9162C19.5628 32.6495 19.4056 33.373 19.4325 34.1896C19.4572 34.9373 19.6187 35.5561 19.9635 36.2245C20.6641 37.5826 21.98 38.5209 23.5022 38.7478C24.6724 38.9222 25.9582 38.6302 26.9728 37.9596C27.296 37.746 27.4671 37.6086 27.7339 37.3484C28.472 36.6287 28.905 35.8165 29.0912 34.8027C29.1261 34.6127 29.1304 34.4914 29.1441 33.3167C29.1523 32.6132 29.164 28.7869 29.1702 24.8138C29.1763 20.8407 29.1867 16.4739 29.1932 15.1099L29.2051 12.6299H31.4009H33.5967L33.6066 12.6897Z" fill="#484848"/>
</svg>
