<svg width="47" height="38" viewBox="0 0 47 38" fill="none" xmlns="http://www.w3.org/2000/svg">
<path d="M41.8103 9.65969C41.8407 10.068 41.8407 10.474 41.8407 10.88C41.8407 23.305 32.3837 37.6224 15.1007 37.6224C9.776 37.6224 4.82933 36.08 0.666664 33.4014C1.42266 33.4877 2.15066 33.518 2.937 33.518C7.33066 33.518 11.3743 32.034 14.606 29.5024C10.4737 29.416 7.011 26.7094 5.81633 22.9854C6.39733 23.0717 6.98066 23.13 7.592 23.13C8.43433 23.13 9.28133 23.0134 10.0677 22.8104C5.758 21.9377 2.531 18.1554 2.531 13.5867V13.47C3.784 14.1677 5.23766 14.604 6.77766 14.6624C4.246 12.9777 2.587 10.096 2.587 6.83635C2.587 5.09102 3.05133 3.49035 3.86566 2.09502C8.49266 7.79535 15.4483 11.5217 23.2463 11.93C23.1017 11.23 23.013 10.5044 23.013 9.77635C23.013 4.59635 27.2037 0.377686 32.4117 0.377686C35.1183 0.377686 37.5613 1.51169 39.2787 3.34569C41.402 2.93735 43.4367 2.15102 45.2427 1.07535C44.545 3.25702 43.0587 5.09102 41.1103 6.25535C43.0027 6.05002 44.8367 5.52735 46.5213 4.79935C45.2427 6.66135 43.6443 8.32035 41.8103 9.65969Z" fill="#484848"/>
</svg>
